<svg xmlns="http://www.w3.org/2000/svg" width="2400" height="1350" viewBox="0 0 2400 1350">
  <defs>
    <radialGradient id="washi" cx="46%" cy="34%" r="82%">
      <stop offset="0%"  stop-color="#F8F5EF"/>
      <stop offset="56%" stop-color="#F2EEE4"/>
      <stop offset="100%" stop-color="#E9E3D7"/>
    </radialGradient>
    <filter id="grain">
      <feTurbulence type="fractalNoise" baseFrequency="0.9" numOctaves="2" stitchTiles="stitch" result="n"/>
      <feColorMatrix in="n" type="matrix" values="0 0 0 0 0  0 0 0 0 0  0 0 0 0 0  0 0 0 0.45 0"/>
      <feComposite operator="over" in2="SourceGraphic"/>
    </filter>
  </defs>

  <!-- washi ground -->
  <rect width="2400" height="1350" fill="url(#washi)"/>

  <!-- ensō: a single quiet brushstroke, off to the right, breathing into the negative space -->
  <path d="M1983.72,529.03 L1986.64,536.47 L1989.25,544.02 L1991.69,551.65 L1994.00,559.34 L1996.17,567.08 L1998.21,574.89 L2000.10,582.75 L2001.85,590.66 L2003.44,598.63 L2004.86,606.66 L2006.10,614.73 L2007.14,622.85 L2007.97,631.01 L2008.57,639.21 L2008.93,647.43 L2009.04,655.67 L2008.87,663.92 L2008.43,672.17 L2007.71,680.40 L2006.69,688.61 L2005.37,696.78 L2003.76,704.89 L2001.85,712.94 L1999.65,720.92 L1997.17,728.81 L1994.40,736.60 L1991.38,744.29 L1988.10,751.87 L1984.59,759.34 L1980.86,766.68 L1976.93,773.91 L1972.81,781.02 L1968.52,788.01 L1964.08,794.88 L1959.50,801.65 L1954.81,808.30 L1950.00,814.86 L1945.09,821.32 L1940.09,827.70 L1935.01,833.99 L1929.86,840.20 L1924.62,846.33 L1919.31,852.39 L1913.93,858.38 L1908.46,864.30 L1902.92,870.14 L1897.28,875.90 L1891.54,881.57 L1885.71,887.15 L1879.76,892.63 L1873.71,897.99 L1867.53,903.23 L1861.22,908.33 L1854.79,913.28 L1848.22,918.07 L1841.52,922.68 L1834.69,927.10 L1827.74,931.33 L1820.65,935.35 L1813.45,939.16 L1806.13,942.75 L1798.70,946.11 L1791.18,949.25 L1783.57,952.17 L1775.88,954.87 L1768.12,957.35 L1760.31,959.62 L1752.44,961.69 L1744.52,963.57 L1736.57,965.27 L1728.60,966.80 L1720.59,968.17 L1712.57,969.40 L1704.53,970.49 L1696.48,971.46 L1688.41,972.31 L1680.32,973.04 L1672.22,973.67 L1664.10,974.19 L1655.97,974.60 L1647.81,974.91 L1639.63,975.11 L1631.43,975.18 L1623.21,975.12 L1614.97,974.93 L1606.71,974.58 L1598.44,974.06 L1590.15,973.36 L1581.87,972.46 L1573.60,971.35 L1565.34,970.02 L1557.11,968.44 L1548.91,966.61 L1540.78,964.52 L1532.70,962.16 L1524.71,959.52 L1516.81,956.60 L1509.01,953.40 L1501.33,949.92 L1493.79,946.16 L1486.38,942.14 L1479.12,937.85 L1472.02,933.31 L1465.08,928.54 L1458.30,923.54 L1451.69,918.33 L1445.25,912.94 L1438.97,907.37 L1432.86,901.63 L1426.90,895.76 L1421.09,889.75 L1415.43,883.63 L1409.90,877.41 L1404.51,871.09 L1399.24,864.68 L1394.09,858.20 L1389.06,851.65 L1384.13,845.02 L1379.32,838.33 L1374.61,831.57 L1370.01,824.74 L1365.52,817.84 L1361.16,810.86 L1356.91,803.81 L1352.80,796.68 L1348.84,789.46 L1345.03,782.16 L1341.38,774.77 L1337.91,767.30 L1334.64,759.73 L1331.57,752.08 L1328.71,744.34 L1326.08,736.52 L1323.68,728.63 L1321.53,720.68 L1319.62,712.66 L1317.96,704.58 L1316.56,696.47 L1315.41,688.32 L1314.50,680.15 L1313.84,671.96 L1313.41,663.77 L1313.20,655.57 L1313.21,647.39 L1313.41,639.22 L1313.80,631.07 L1314.36,622.95 L1315.08,614.85 L1315.94,606.78 L1316.93,598.74 L1318.04,590.73 L1319.26,582.74 L1320.58,574.77 L1321.99,566.83 L1323.49,558.90 L1325.07,550.98 L1326.75,543.08 L1328.52,535.19 L1330.39,527.31 L1332.36,519.43 L1334.45,511.57 L1336.67,503.72 L1339.02,495.89 L1341.53,488.09 L1344.21,480.32 L1347.06,472.60 L1350.10,464.93 L1353.35,457.32 L1356.82,449.80 L1360.51,442.37 L1364.43,435.05 L1368.59,427.84 L1372.99,420.78 L1377.63,413.86 L1382.50,407.10 L1387.62,400.52 L1392.96,394.12 L1398.52,387.90 L1404.28,381.88 L1410.25,376.06 L1416.40,370.44 L1422.73,365.02 L1429.21,359.80 L1435.83,354.77 L1442.58,349.93 L1449.45,345.27 L1456.43,340.79 L1463.49,336.48 L1470.64,332.33 L1477.86,328.33 L1485.14,324.48 L1492.49,320.76 L1499.89,317.18 L1507.34,313.73 L1514.85,310.42 L1522.41,307.23 L1530.01,304.17 L1537.67,301.25 L1545.38,298.47 L1553.14,295.84 L1560.96,293.36 L1568.82,291.06 L1576.75,288.94 L1584.72,287.02 L1592.74,285.30 L1600.80,283.80 L1608.91,282.53 L1617.05,281.50 L1625.21,280.72 L1633.39,280.21 L1641.58,279.96 L1649.77,279.99 L1657.95,280.29 L1666.11,280.86 L1674.24,281.69 L1682.32,282.80 L1690.36,284.15 L1698.34,285.75 L1706.25,287.59 L1714.10,289.64 L1721.86,291.89 L1729.55,294.33 L1737.17,296.94 L1744.70,299.71 L1752.15,302.62 L1759.53,305.65 L1766.83,308.79 L1774.07,312.02 L1781.24,315.35 L1788.36,318.76 L1795.41,322.24 L1802.42,325.79 L1809.38,329.42 L1816.30,333.12 L1823.16,336.90 L1829.98,340.77 L1836.75,344.73 L1843.45,348.81 L1850.07,353.03 L1856.51,357.53 L1854.60,360.15 L1847.58,356.63 L1840.65,353.07 L1833.73,349.57 L1826.80,346.15 L1819.86,342.80 L1812.91,339.52 L1805.94,336.30 L1798.96,333.15 L1791.95,330.06 L1784.92,327.03 L1777.86,324.06 L1770.77,321.17 L1763.63,318.36 L1756.44,315.64 L1749.21,313.02 L1741.91,310.51 L1734.56,308.14 L1727.14,305.90 L1719.67,303.84 L1712.13,301.94 L1704.53,300.25 L1696.88,298.76 L1689.18,297.49 L1681.44,296.45 L1673.66,295.66 L1665.86,295.12 L1658.04,294.83 L1650.21,294.81 L1642.38,295.04 L1634.56,295.54 L1626.77,296.28 L1619.00,297.28 L1611.27,298.51 L1603.58,299.97 L1595.95,301.65 L1588.36,303.53 L1580.84,305.60 L1573.37,307.85 L1565.96,310.27 L1558.61,312.84 L1551.32,315.56 L1544.09,318.41 L1536.92,321.38 L1529.80,324.47 L1522.74,327.68 L1515.73,331.00 L1508.78,334.44 L1501.88,337.99 L1495.04,341.65 L1488.26,345.44 L1481.55,349.36 L1474.91,353.41 L1468.35,357.61 L1461.88,361.96 L1455.51,366.47 L1449.26,371.14 L1443.14,375.98 L1437.15,381.01 L1431.32,386.21 L1425.66,391.60 L1420.17,397.17 L1414.88,402.93 L1409.79,408.86 L1404.92,414.97 L1400.26,421.24 L1395.84,427.67 L1391.64,434.25 L1387.68,440.95 L1383.94,447.78 L1380.44,454.72 L1377.15,461.75 L1374.08,468.86 L1371.22,476.04 L1368.55,483.27 L1366.06,490.54 L1363.73,497.84 L1361.56,505.17 L1359.53,512.51 L1357.62,519.86 L1355.83,527.21 L1354.14,534.56 L1352.54,541.92 L1351.03,549.27 L1349.59,556.62 L1348.23,563.98 L1346.94,571.34 L1345.72,578.71 L1344.58,586.10 L1343.52,593.50 L1342.56,600.93 L1341.69,608.37 L1340.94,615.84 L1340.32,623.33 L1339.84,630.84 L1339.51,638.38 L1339.35,645.93 L1339.37,653.49 L1339.58,661.06 L1340.00,668.64 L1340.64,676.20 L1341.50,683.75 L1342.59,691.28 L1343.91,698.78 L1345.47,706.23 L1347.26,713.63 L1349.28,720.97 L1351.53,728.25 L1353.99,735.46 L1356.66,742.60 L1359.53,749.65 L1362.59,756.62 L1365.82,763.51 L1369.22,770.32 L1372.76,777.05 L1376.44,783.70 L1380.25,790.27 L1384.18,796.78 L1388.21,803.21 L1392.35,809.58 L1396.59,815.89 L1400.92,822.14 L1405.35,828.33 L1409.87,834.47 L1414.49,840.54 L1419.21,846.56 L1424.03,852.51 L1428.97,858.39 L1434.03,864.19 L1439.22,869.90 L1444.53,875.50 L1449.99,880.99 L1455.60,886.35 L1461.36,891.57 L1467.27,896.62 L1473.34,901.50 L1479.57,906.19 L1485.96,910.67 L1492.50,914.93 L1499.19,918.96 L1506.02,922.74 L1512.99,926.27 L1520.08,929.54 L1527.29,932.54 L1534.60,935.28 L1542.00,937.76 L1549.47,939.98 L1557.01,941.95 L1564.60,943.66 L1572.22,945.15 L1579.87,946.41 L1587.54,947.46 L1595.22,948.32 L1602.89,949.00 L1610.56,949.52 L1618.22,949.88 L1625.86,950.11 L1633.49,950.21 L1641.09,950.20 L1648.68,950.09 L1656.25,949.88 L1663.81,949.58 L1671.36,949.19 L1678.89,948.71 L1686.41,948.14 L1693.93,947.47 L1701.44,946.70 L1708.94,945.82 L1716.43,944.82 L1723.92,943.68 L1731.38,942.41 L1738.83,940.97 L1746.25,939.37 L1753.64,937.60 L1761.00,935.63 L1768.30,933.47 L1775.54,931.11 L1782.72,928.53 L1789.82,925.75 L1796.84,922.75 L1803.77,919.53 L1810.59,916.11 L1817.31,912.49 L1823.92,908.66 L1830.42,904.65 L1836.79,900.46 L1843.06,896.10 L1849.20,891.58 L1855.23,886.92 L1861.15,882.13 L1866.97,877.22 L1872.69,872.20 L1878.31,867.08 L1883.86,861.88 L1889.32,856.58 L1894.71,851.22 L1900.03,845.77 L1905.29,840.26 L1910.49,834.67 L1915.63,829.01 L1920.71,823.28 L1925.74,817.46 L1930.69,811.56 L1935.58,805.57 L1940.38,799.48 L1945.09,793.29 L1949.69,786.99 L1954.18,780.57 L1958.53,774.03 L1962.73,767.37 L1966.75,760.59 L1970.60,753.67 L1974.24,746.64 L1977.65,739.47 L1980.84,732.20 L1983.78,724.80 L1986.45,717.31 L1988.86,709.71 L1990.99,702.04 L1992.84,694.28 L1994.41,686.46 L1995.70,678.59 L1996.71,670.69 L1997.44,662.75 L1997.92,654.79 L1998.14,646.83 L1998.12,638.87 L1997.87,630.92 L1997.42,622.99 L1996.76,615.09 L1995.93,607.21 L1994.92,599.36 L1993.77,591.54 L1992.47,583.76 L1991.05,576.01 L1989.52,568.29 L1987.87,560.60 L1986.13,552.93 L1984.31,545.28 L1982.42,537.65 L1980.62,529.98 Z" fill="#2E2A24" fill-opacity="0.82"/>

  <!-- 拍 ("beat") — a single-character reading of tempo, in the home seal's vermillion -->
  <g transform="translate(1273.00,241.00) scale(7.1667)">
    <path d="M40.078,39.098L40.078,27.399C42.562,26.81 43.15,26.549 43.15,25.961C43.15,25.634 42.889,25.373 42.301,25.176C41.712,24.98 41.647,24.98 35.176,24C35.569,26.81 35.699,28.902 35.699,32.235L35.699,39.098L31.582,39.098C29.752,39.098 28.444,38.967 27.072,38.575L27.529,40.863C28.641,40.667 29.425,40.601 31.516,40.601L35.699,40.601L35.699,55.373C31.255,56.745 28.248,57.464 25.699,57.791C27.333,62.431 28.118,64.196 28.641,64.196C29.163,64.196 29.425,63.542 29.621,61.386C32.497,60.209 33.804,59.686 35.699,58.902L35.699,78.248C35.699,78.444 35.242,78.771 34.98,78.771C34.915,78.771 34.85,78.771 34.784,78.706C34.719,78.706 34.719,78.706 34.654,78.706C34.588,78.706 34.588,78.706 34.588,78.706C28.706,78.575 28.706,78.575 25.699,78.379L25.699,79.49C30.667,80.405 30.667,80.405 31.516,80.863C32.366,81.32 32.562,81.712 33.085,84C36.288,83.477 37.595,83.085 38.575,82.301C39.752,81.386 40.144,80.34 40.209,78.118C40.144,76.614 40.144,75.503 40.144,74.784C40.078,73.346 40.078,72.301 40.078,72.17L40.078,56.876C44.523,54.719 46.614,53.542 48.706,52.17L48.248,51.32C45.242,52.497 44.327,52.758 40.078,54.131L40.078,40.601L48.51,40.601C48.902,40.601 49.229,40.405 49.229,40.144C49.229,40.013 49.098,39.752 48.902,39.556C47.137,37.529 46.549,36.941 44.588,34.98C43.15,36.68 42.693,37.203 41.451,39.098ZM61.059,39.359C63.216,36.157 65.503,32.301 67.791,27.725C69.621,27.399 70.405,27.072 70.405,26.549C70.405,25.961 69.817,25.765 63.085,24.392C62.627,28.51 60.863,35.634 59.49,39.359L54.85,39.359C52.627,37.856 51.908,37.464 49.752,36.092C50.013,40.078 50.144,43.869 50.144,51.778C50.144,67.137 50.013,75.503 49.686,81.974C49.686,82.105 49.686,82.235 49.686,82.301C49.686,82.758 50.078,83.085 50.667,83.15C53.935,83.15 54.588,82.954 54.588,82.17C54.588,82.105 54.523,82.039 54.523,81.908L54.523,77.268L75.83,77.268L75.83,81.778C75.83,82.366 76.026,82.562 76.614,82.562C79.948,82.562 80.34,82.431 80.471,81.32C80.34,75.307 80.275,63.542 80.275,59.948L80.275,41.712C81.647,41.059 82.301,40.536 82.301,40.144C82.301,39.948 82.039,39.621 81.386,39.033C79.948,37.856 79.425,37.399 77.725,36.092C76.484,37.464 76.092,37.922 74.98,39.359ZM54.523,56.876L54.523,40.863L75.83,40.863L75.83,56.876ZM75.83,58.379L75.83,75.765L54.523,75.765L54.523,58.379Z" fill="#B5503A"/>
  </g>

  <!-- wordmark block, left, with a generous margin of ma -->
  <text x="208" y="612" font-family="Shippori Mincho, 'Hiragino Mincho ProN', serif"
        font-size="172" fill="#433F38" letter-spacing="2">Tempo</text>
  <rect x="214" y="672" width="116" height="5" rx="2.5" fill="#B5503A"/>
  <text x="216" y="754" font-family="'Hiragino Mincho ProN', serif" font-size="46"
        fill="#2B2B2B" fill-opacity="0.56" letter-spacing="14">静けさ・余白・拍</text>
  <text x="220" y="812" font-family="'Hiragino Sans', sans-serif" font-size="23"
        fill="#2B2B2B" fill-opacity="0.34" letter-spacing="9">AN&#160;ULTRA-MINIMAL&#160;ANDROID&#160;LAUNCHER</text>

  <!-- 静 ("stillness") seal — the same hanko that signs the home screen -->
  <g transform="translate(214,1086)">
    <rect x="0" y="0" width="104" height="104" rx="14" fill="#B5503A"/>
    <text x="52" y="80" text-anchor="middle" font-family="'Hiragino Mincho ProN', serif"
          font-size="74" fill="#F8F5EF">静</text>
  </g>

  <!-- paper grain, drawn last at low opacity -->
  <rect width="2400" height="1350" filter="url(#grain)" opacity="0.05"/>
</svg>
